<?xml version="1.0" encoding="UTF-8" standalone="no" ?>
<!DOCTYPE svg PUBLIC "-//W3C//DTD SVG 1.1//EN" "http://www.w3.org/Graphics/SVG/1.1/DTD/svg11.dtd">
<svg xmlns="http://www.w3.org/2000/svg" xmlns:xlink="http://www.w3.org/1999/xlink" version="1.1" width="1400" height="2100" viewBox="1440 4590 1400 2100" xml:space="preserve">
<desc>Created with Fabric.js 5.2.4</desc>
<defs>
</defs>
<g transform="matrix(1 0 0 1 700 1050)" id="4e8c4a8c-7010-40f7-955b-fdb0feb5a8f9"  >
<rect style="stroke: none; stroke-width: 1; stroke-dasharray: none; stroke-linecap: butt; stroke-dashoffset: 0; stroke-linejoin: miter; stroke-miterlimit: 4; fill: rgb(255,255,255); fill-rule: nonzero; opacity: 1; visibility: hidden;" vector-effect="non-scaling-stroke"  x="-700" y="-1050" rx="0" ry="0" width="1400" height="2100" />
</g>
<g transform="matrix(Infinity NaN NaN Infinity 0 0)" id="abf8a480-6381-47df-bdf5-2a2c4a221730"  >
</g>
<g transform="matrix(0.64 0 0 0.64 2142.81 -3386.55)" id="49228349-499e-445c-bad2-e6e2bb636675"  >
<path style="stroke: rgb(0,0,0); stroke-width: 12; stroke-dasharray: none; stroke-linecap: butt; stroke-dashoffset: 0; stroke-linejoin: miter; stroke-miterlimit: 4; fill: rgb(0,0,0); fill-rule: nonzero; opacity: 1;" vector-effect="non-scaling-stroke"  transform=" translate(-6400.05, -3203.75)" d="M 484 4640 C 322 4616 164 4512 86 4377 C -17 4200 -26 3963 63 3775 C 159 3575 323 3447 566 3384 C 649 3362 689 3358 815 3356 C 898 3356 991 3358 1023 3363 L 1081 3370 L 1065 3341 C 1031 3274 1057 3183 1121 3148 C 1149 3132 1167 3130 1219 3135 C 1253 3138 1296 3146 1313 3153 C 1342 3165 1348 3164 1392 3133 C 1447 3097 1494 3085 1547 3093 C 1644 3109 1768 3205 1884 3354 C 1956 3445 2113 3601 2240 3706 C 2358 3804 2363 3804 2286 3714 C 1906 3270 1780 2698 1965 2259 C 2117 1897 2458 1708 2840 1774 C 3083 1816 3276 1979 3355 2207 C 3384 2291 3404 2428 3395 2490 L 3389 2536 L 3455 2532 L 3521 2528 L 3594 2455 C 3679 2370 3792 2309 3908 2285 C 3986 2269 4163 2266 4244 2279 C 4294 2287 4294 2287 4356 2235 C 4583 2042 4917 1974 5146 2075 C 5259 2125 5316 2208 5328 2338 L 5335 2413 L 5405 2435 C 5514 2469 5619 2514 5783 2596 L 5933 2671 L 6039 2622 C 6221 2537 6339 2496 6400 2496 C 6461 2496 6579 2537 6761 2622 L 6867 2671 L 7017 2596 C 7181 2514 7286 2469 7395 2435 L 7465 2413 L 7472 2338 C 7476 2295 7488 2243 7500 2216 C 7568 2073 7773 2004 8024 2040 C 8174 2062 8321 2130 8444 2235 C 8506 2287 8506 2287 8556 2279 C 8638 2266 8814 2269 8892 2285 C 9010 2310 9121 2370 9206 2455 L 9279 2528 L 9344 2532 L 9410 2536 L 9404 2490 C 9396 2429 9416 2290 9445 2207 C 9479 2108 9525 2036 9606 1954 C 9834 1724 10253 1695 10539 1890 C 10796 2064 10934 2380 10916 2755 C 10901 3088 10758 3429 10514 3714 C 10437 3804 10442 3804 10560 3706 C 10687 3601 10844 3445 10916 3354 C 11032 3205 11156 3109 11253 3093 C 11306 3085 11353 3097 11408 3133 C 11452 3164 11458 3165 11487 3153 C 11504 3146 11547 3138 11581 3135 C 11633 3130 11651 3132 11679 3148 C 11743 3183 11769 3274 11735 3341 L 11719 3370 L 11777 3363 C 11809 3358 11903 3356 11985 3356 C 12111 3358 12151 3362 12234 3384 C 12417 3432 12565 3522 12656 3643 C 12760 3781 12806 3927 12797 4090 C 12787 4254 12734 4378 12625 4486 C 12499 4613 12310 4670 12124 4637 C 11919 4600 11809 4479 11807 4285 C 11806 4206 11829 4108 11852 4094 C 11857 4091 11868 4097 11876 4109 C 11898 4140 11957 4154 12007 4141 C 12057 4127 12114 4068 12129 4013 C 12173 3854 12062 3700 11854 3632 C 11695 3580 11438 3577 11250 3625 C 11129 3656 10939 3741 10980 3747 C 11071 3759 11110 3773 11135 3801 C 11164 3836 11169 3903 11146 3935 C 11134 3952 11133 3948 11137 3904 C 11146 3810 11109 3773 10998 3762 C 10944 3758 10936 3760 10897 3787 C 10812 3848 10740 3870 10740 3835 C 10740 3821 10827 3770 10850 3770 C 10857 3770 10887 3755 10918 3737 C 11065 3651 11249 3598 11469 3579 C 11767 3552 11986 3619 12091 3770 C 12176 3891 12178 4049 12096 4138 C 12063 4175 12026 4190 11969 4190 C 11926 4190 11911 4185 11890 4165 L 11863 4139 L 11844 4182 C 11830 4213 11825 4244 11827 4296 C 11831 4494 11990 4630 12219 4630 C 12555 4629 12780 4381 12757 4035 C 12732 3667 12504 3444 12088 3379 C 12041 3372 11956 3369 11868 3373 C 11737 3377 11716 3381 11625 3413 C 11521 3449 11495 3451 11527 3418 C 11539 3406 11574 3395 11621 3387 C 11691 3375 11696 3373 11713 3340 C 11745 3277 11718 3201 11655 3174 C 11603 3153 11514 3156 11473 3181 L 11439 3202 L 11370 3160 C 11307 3122 11294 3118 11251 3122 C 11178 3129 11127 3170 10890 3410 C 10640 3663 10576 3722 10422 3839 C 10195 4011 10166 4028 10153 3994 C 10144 3969 10188 3932 10285 3884 C 10390 3831 10398 3824 10498 3705 C 10724 3436 10870 3100 10896 2794 C 10912 2596 10836 2327 10710 2139 C 10686 2104 10630 2039 10585 1995 C 10448 1859 10283 1790 10098 1790 C 9781 1790 9536 1957 9446 2235 C 9424 2303 9409 2428 9417 2487 L 9422 2536 L 9509 2558 C 9631 2589 9729 2641 9813 2721 C 9872 2776 9948 2878 9963 2924 C 9965 2930 9996 2920 10033 2902 C 10080 2878 10110 2855 10135 2823 C 10247 2676 10209 2443 10062 2378 C 10015 2357 9959 2360 9908 2386 C 9879 2401 9830 2459 9830 2478 C 9830 2485 9825 2490 9819 2490 C 9812 2490 9811 2471 9816 2433 C 9840 2229 9953 2127 10170 2113 C 10317 2103 10426 2143 10520 2240 C 10605 2326 10677 2481 10736 2701 C 10768 2822 10755 2938 10705 2980 C 10679 3002 10676 2984 10696 2918 C 10721 2832 10722 2677 10697 2633 C 10688 2615 10669 2598 10655 2594 C 10625 2587 10563 2606 10552 2627 C 10545 2639 10540 2635 10530 2611 C 10513 2570 10475 2540 10439 2540 C 10323 2540 10291 2676 10365 2854 C 10414 2972 10430 3053 10430 3185 C 10430 3326 10411 3411 10356 3524 C 10250 3741 10061 3914 9735 4094 C 9619 4158 9570 4174 9570 4147 C 9570 4114 9635 4076 9772 4031 C 9965 3967 10079 3701 10010 3477 C 9984 3392 9967 3378 9945 3422 C 9913 3484 9818 3588 9753 3631 C 9733 3644 9727 3658 9724 3695 C 9717 3792 9653 3889 9555 3954 C 9505 3988 9386 4032 9310 4045 C 9278 4051 9272 4058 9236 4132 C 9206 4194 9179 4232 9120 4292 C 9063 4349 9047 4371 9059 4375 C 9068 4377 9134 4384 9205 4390 C 9512 4414 9779 4363 10240 4192 C 10543 4080 10602 4066 10765 4073 C 10915 4079 10983 4096 11025 4140 L 11054 4170 L 10988 4170 C 10926 4170 10920 4172 10896 4201 C 10876 4225 10870 4242 10870 4281 C 10870 4371 10928 4439 11023 4460 C 11134 4485 11240 4439 11286 4343 C 11309 4297 11312 4280 11307 4230 C 11301 4155 11264 4091 11207 4052 C 11144 4009 11106 3999 11030 4006 C 10982 4011 10961 4009 10955 4000 C 10943 3980 10971 3969 11018 3975 C 11042 3979 11081 3983 11106 3986 C 11130 3988 11169 3999 11193 4011 C 11285 4057 11330 4126 11338 4232 C 11342 4291 11339 4307 11316 4354 C 11255 4479 11092 4522 10951 4450 C 10848 4398 10820 4244 10901 4176 C 10918 4162 10938 4150 10946 4150 C 10974 4150 10959 4132 10918 4115 C 10861 4091 10727 4084 10632 4100 C 10530 4116 10460 4138 10247 4221 C 9884 4362 9712 4399 9389 4407 C 9262 4410 9151 4408 9098 4401 L 9013 4390 L 8929 4430 C 8781 4500 8713 4514 8495 4514 C 8312 4515 8300 4514 8180 4482 C 8111 4465 8033 4442 8005 4432 L 7955 4414 L 7866 4453 C 7694 4527 7455 4584 7212 4610 C 6994 4633 6668 4622 6476 4585 C 6410 4573 6390 4573 6324 4585 C 6132 4622 5806 4633 5588 4610 C 5345 4584 5106 4527 4934 4453 L 4845 4414 L 4797 4431 C 4616 4496 4434 4525 4251 4517 C 4091 4511 3994 4488 3871 4430 L 3787 4390 L 3702 4401 C 3649 4408 3538 4410 3411 4407 C 3088 4399 2916 4362 2553 4221 C 2340 4138 2270 4116 2168 4100 C 2073 4084 1939 4091 1883 4115 C 1841 4132 1826 4150 1854 4150 C 1862 4150 1882 4162 1899 4176 C 1980 4244 1952 4398 1849 4450 C 1708 4522 1545 4479 1484 4354 C 1461 4307 1458 4291 1462 4232 C 1470 4126 1515 4057 1607 4011 C 1631 3999 1670 3988 1694 3986 C 1719 3983 1758 3979 1782 3975 C 1829 3969 1857 3980 1845 4000 C 1839 4009 1818 4011 1770 4006 C 1694 3999 1656 4009 1593 4052 C 1536 4091 1499 4155 1493 4230 C 1479 4383 1617 4496 1775 4461 C 1872 4439 1930 4372 1930 4281 C 1930 4242 1924 4225 1904 4201 C 1880 4172 1874 4170 1812 4170 L 1746 4170 L 1775 4140 C 1817 4096 1885 4079 2035 4073 C 2197 4066 2257 4080 2555 4190 C 2935 4331 3087 4369 3340 4390 C 3453 4399 3690 4390 3741 4375 C 3753 4371 3737 4349 3680 4292 C 3621 4232 3594 4194 3564 4132 C 3528 4058 3522 4051 3490 4045 C 3414 4032 3295 3988 3245 3954 C 3147 3889 3083 3792 3076 3695 C 3073 3656 3067 3644 3044 3629 C 2992 3595 2898 3496 2868 3442 C 2831 3378 2819 3383 2790 3477 C 2751 3604 2770 3764 2838 3870 C 2896 3961 2953 4005 3057 4041 C 3157 4076 3230 4120 3230 4145 C 3230 4174 3184 4160 3065 4094 C 2739 3914 2550 3741 2444 3524 C 2389 3411 2370 3326 2370 3185 C 2370 3055 2386 2973 2433 2859 C 2490 2719 2489 2620 2430 2568 C 2390 2532 2342 2531 2302 2565 C 2286 2579 2269 2602 2265 2617 C 2259 2641 2257 2642 2249 2628 C 2237 2606 2176 2586 2145 2594 C 2131 2598 2112 2615 2103 2633 C 2078 2677 2079 2832 2104 2918 C 2124 2984 2121 3002 2095 2980 C 2034 2929 2031 2814 2084 2630 C 2195 2249 2358 2095 2632 2113 C 2805 2124 2919 2199 2963 2330 C 2983 2392 2994 2490 2981 2490 C 2975 2490 2970 2485 2970 2478 C 2970 2459 2921 2401 2892 2386 C 2746 2313 2600 2432 2600 2625 C 2600 2750 2659 2849 2767 2902 C 2804 2920 2835 2930 2837 2924 C 2852 2878 2928 2776 2987 2721 C 3071 2641 3169 2589 3291 2558 L 3378 2536 L 3383 2487 C 3391 2428 3376 2303 3354 2235 C 3264 1957 3019 1790 2702 1790 C 2423 1790 2170 1963 2023 2255 C 1887 2524 1869 2794 1967 3104 C 2040 3336 2185 3584 2357 3770 C 2405 3822 2436 3845 2511 3882 C 2611 3931 2656 3969 2647 3994 C 2634 4028 2605 4011 2378 3839 C 2224 3722 2160 3663 1910 3410 C 1674 3171 1621 3129 1550 3122 C 1503 3118 1479 3127 1393 3181 L 1360 3202 L 1326 3181 C 1286 3156 1197 3153 1145 3174 C 1106 3190 1070 3242 1070 3280 C 1070 3294 1078 3321 1088 3340 C 1104 3373 1109 3375 1179 3387 C 1226 3395 1261 3406 1273 3418 C 1305 3451 1279 3449 1175 3413 C 1084 3381 1063 3377 932 3373 C 613 3361 370 3444 207 3619 C 110 3725 55 3864 43 4035 C 20 4381 245 4629 581 4630 C 810 4630 971 4493 973 4296 C 973 4249 967 4210 955 4182 L 937 4139 L 911 4164 C 863 4210 757 4197 704 4138 C 591 4015 642 3787 806 3675 C 930 3590 1105 3558 1333 3579 C 1526 3596 1675 3635 1825 3708 C 1891 3740 1971 3778 2003 3793 C 2063 3821 2079 3850 2035 3850 C 2005 3850 1963 3830 1903 3787 C 1864 3760 1856 3758 1802 3762 C 1691 3773 1654 3810 1663 3904 C 1667 3948 1666 3952 1654 3935 C 1631 3903 1636 3836 1665 3801 C 1690 3773 1729 3759 1820 3747 C 1861 3741 1671 3656 1550 3625 C 1302 3562 991 3587 826 3684 C 732 3739 660 3850 660 3939 C 660 4071 766 4172 872 4141 C 892 4134 916 4120 924 4109 C 943 4081 955 4090 976 4153 C 1001 4227 998 4348 970 4422 C 910 4583 709 4673 484 4640 z M 6277 4561 L 6400 4539 L 6527 4562 C 6641 4582 6686 4585 6930 4585 C 7239 4585 7347 4573 7576 4515 C 7708 4481 7900 4413 7900 4400 C 7900 4396 7870 4380 7833 4365 C 7795 4349 7707 4308 7636 4272 L 7507 4208 L 7406 4233 C 7100 4310 6711 4314 6458 4243 C 6405 4229 6395 4229 6343 4243 C 6219 4278 6088 4292 5900 4292 C 5699 4292 5565 4276 5394 4234 L 5292 4209 L 5179 4266 C 5116 4297 5025 4340 4975 4361 L 4885 4399 L 4934 4419 C 5086 4485 5285 4538 5475 4564 C 5643 4588 5649 4588 5910 4585 C 6109 4583 6178 4578 6277 4561 z M 4570 4470 C 4668 4446 4781 4411 4793 4401 C 4797 4397 4761 4370 4713 4342 C 4664 4313 4594 4265 4555 4236 L 4486 4182 L 4435 4202 C 4327 4247 4069 4329 3956 4355 L 3837 4383 L 3904 4417 C 3965 4448 4072 4480 4155 4494 C 4228 4505 4486 4491 4570 4470 z M 8752 4471 C 8794 4460 8859 4436 8896 4417 L 8963 4383 L 8844 4355 C 8731 4329 8473 4247 8365 4202 L 8314 4182 L 8245 4236 C 8206 4265 8136 4313 8087 4342 C 8039 4370 8003 4397 8007 4401 C 8026 4418 8252 4479 8355 4494 C 8431 4505 8677 4491 8752 4471 z M 4952 4339 C 5163 4247 5273 4180 5217 4180 C 5197 4180 4986 4075 4931 4037 L 4878 4002 L 4742 4066 C 4667 4102 4588 4139 4566 4148 L 4527 4166 L 4579 4209 C 4629 4251 4834 4380 4851 4380 C 4855 4380 4901 4362 4952 4339 z M 8056 4321 C 8110 4288 8182 4240 8214 4214 L 8274 4167 L 8234 4149 C 8213 4139 8133 4102 8058 4066 L 7922 4002 L 7869 4037 C 7814 4075 7603 4180 7583 4180 C 7547 4180 7569 4203 7643 4241 C 7740 4292 7931 4379 7946 4380 C 7951 4380 8001 4353 8056 4321 z M 3918 4340 C 3966 4330 4045 4309 4094 4295 C 4187 4268 4448 4175 4458 4165 C 4461 4162 4430 4125 4389 4082 C 4348 4040 4302 3990 4288 3971 L 4262 3937 L 4169 3964 C 3995 4013 3767 4050 3638 4050 C 3602 4050 3580 4054 3580 4061 C 3580 4067 3597 4104 3617 4144 C 3657 4220 3784 4360 3814 4360 C 3823 4360 3870 4351 3918 4340 z M 9074 4288 C 9138 4222 9220 4095 9220 4061 C 9220 4054 9198 4050 9162 4050 C 9033 4050 8805 4013 8631 3964 L 8538 3937 L 8512 3971 C 8498 3990 8452 4040 8411 4082 C 8370 4125 8339 4162 8342 4165 C 8364 4187 8737 4308 8890 4343 C 8995 4368 8995 4368 9074 4288 z M 6117 4269 C 6170 4263 6255 4248 6307 4235 L 6400 4211 L 6493 4235 C 6762 4303 7151 4292 7440 4207 L 7484 4194 L 7365 4126 C 7299 4088 7169 4010 7076 3952 L 6908 3847 L 6654 3975 L 6400 4103 L 6146 3975 L 5892 3847 L 5724 3952 C 5631 4010 5501 4088 5435 4126 L 5315 4194 L 5360 4207 C 5428 4227 5595 4259 5680 4269 C 5790 4281 6007 4282 6117 4269 z M 5403 4103 C 5619 3978 5852 3828 5843 3820 C 5839 3815 5768 3775 5687 3730 L 5538 3648 L 5384 3735 C 5299 3782 5159 3857 5073 3902 C 4986 3947 4913 3985 4910 3987 C 4902 3995 4953 4028 5053 4080 C 5132 4122 5253 4178 5268 4180 C 5270 4180 5331 4146 5403 4103 z M 7705 4100 C 7839 4033 7900 3996 7890 3987 C 7887 3985 7814 3947 7727 3902 C 7641 3857 7501 3782 7416 3735 L 7262 3648 L 7113 3730 C 7032 3775 6961 3815 6957 3820 C 6948 3828 7110 3934 7360 4082 C 7473 4149 7531 4178 7545 4174 C 7556 4171 7628 4138 7705 4100 z M 4697 4063 C 4776 4027 4842 3995 4844 3991 C 4846 3988 4801 3941 4744 3887 L 4640 3788 L 4548 3828 C 4497 3850 4426 3878 4390 3890 C 4354 3903 4321 3917 4316 3921 C 4306 3930 4364 4004 4448 4092 C 4512 4158 4485 4161 4697 4063 z M 8432 4001 C 8464 3960 8488 3924 8483 3920 C 8479 3916 8446 3903 8410 3890 C 8374 3878 8303 3849 8252 3828 L 8159 3788 L 8067 3876 C 8016 3924 7969 3970 7961 3976 C 7945 3990 7965 4002 8165 4091 L 8295 4149 L 8334 4112 C 8355 4092 8399 4042 8432 4001 z M 6596 3956 C 6705 3899 6809 3844 6827 3834 L 6858 3814 L 6712 3721 L 6567 3627 L 6483 3669 L 6400 3710 L 6317 3669 L 6233 3627 L 6087 3721 L 5941 3815 L 5967 3830 C 5982 3838 6084 3893 6195 3952 C 6305 4010 6395 4059 6396 4059 C 6396 4060 6486 4013 6596 3956 z M 3510 4023 C 3510 4018 3503 3980 3495 3937 C 3487 3894 3480 3838 3480 3814 C 3480 3765 3490 3770 3360 3750 C 3319 3743 3249 3725 3206 3709 C 3162 3693 3125 3682 3122 3684 C 3113 3694 3142 3797 3165 3836 C 3215 3921 3319 3990 3434 4015 C 3510 4032 3510 4032 3510 4023 z M 3756 4015 C 3821 4006 3912 3991 3959 3980 C 4052 3959 4222 3912 4229 3904 C 4232 3902 4224 3883 4212 3862 C 4199 3842 4173 3794 4154 3755 C 4134 3717 4117 3684 4115 3682 C 4114 3681 4062 3693 3999 3710 C 3875 3742 3684 3770 3589 3770 L 3530 3770 L 3530 3804 C 3530 3841 3558 4008 3566 4021 C 3574 4034 3623 4032 3756 4015 z M 9247 3970 C 9254 3940 9262 3882 9266 3843 L 9273 3770 L 9212 3770 C 9116 3770 8925 3742 8801 3710 C 8738 3693 8686 3681 8685 3682 C 8683 3684 8666 3717 8646 3755 C 8627 3794 8601 3842 8588 3862 C 8576 3883 8568 3902 8571 3904 C 8578 3911 8777 3967 8860 3985 C 8969 4008 9127 4029 9185 4027 L 9235 4025 L 9247 3970 z M 9395 4008 C 9490 3984 9590 3913 9635 3836 C 9658 3797 9687 3694 9678 3684 C 9675 3682 9638 3693 9594 3709 C 9551 3725 9481 3743 9440 3750 C 9310 3770 9320 3765 9320 3814 C 9320 3838 9313 3894 9305 3937 C 9297 3980 9290 4018 9290 4022 C 9290 4030 9328 4025 9395 4008 z M 2856 3923 C 2777 3819 2730 3694 2730 3587 C 2730 3519 2760 3421 2793 3377 C 2818 3344 2818 3342 2804 3284 C 2781 3186 2790 3039 2824 2960 C 2829 2949 2817 2940 2778 2926 C 2742 2914 2709 2890 2669 2851 C 2622 2803 2608 2782 2591 2726 C 2555 2609 2569 2496 2630 2412 C 2670 2357 2724 2330 2795 2330 C 2854 2330 2926 2358 2937 2385 C 2940 2393 2946 2400 2951 2400 C 2962 2400 2934 2327 2904 2279 C 2869 2223 2793 2162 2737 2145 C 2599 2104 2431 2145 2308 2251 C 2235 2313 2151 2452 2116 2567 C 2109 2587 2111 2588 2139 2577 C 2161 2569 2181 2569 2209 2576 C 2243 2585 2249 2585 2253 2569 C 2266 2522 2357 2502 2419 2534 C 2501 2577 2511 2714 2446 2903 C 2389 3070 2375 3222 2405 3365 C 2435 3509 2560 3708 2696 3825 C 2746 3869 2879 3969 2888 3970 C 2890 3970 2876 3949 2856 3923 z M 5045 3891 C 5209 3806 5510 3640 5510 3635 C 5510 3630 5234 3480 5224 3480 C 5219 3480 5168 3508 5110 3541 C 5052 3575 4930 3642 4838 3689 L 4671 3776 L 4697 3809 C 4728 3848 4869 3970 4883 3970 C 4889 3970 4962 3935 5045 3891 z M 8002 3906 C 8043 3871 8089 3827 8103 3809 L 8129 3776 L 7962 3689 C 7870 3642 7748 3575 7690 3541 C 7632 3508 7581 3480 7576 3480 C 7566 3480 7290 3630 7290 3635 C 7290 3646 7895 3969 7916 3970 C 7922 3970 7961 3941 8002 3906 z M 10080 3844 C 10296 3662 10409 3446 10410 3215 C 10410 3105 10395 3023 10354 2903 C 10289 2714 10299 2577 10381 2534 C 10443 2502 10534 2522 10547 2569 C 10551 2585 10557 2585 10591 2576 C 10619 2569 10639 2569 10661 2577 C 10689 2588 10691 2587 10684 2567 C 10649 2452 10565 2313 10492 2251 C 10369 2145 10201 2104 10063 2145 C 10007 2162 9931 2223 9896 2279 C 9866 2327 9838 2400 9849 2400 C 9854 2400 9860 2393 9863 2385 C 9874 2358 9946 2330 10007 2330 C 10081 2330 10134 2359 10177 2423 C 10232 2506 10244 2613 10209 2726 C 10192 2782 10178 2803 10131 2851 C 10091 2890 10058 2914 10022 2926 C 9983 2940 9971 2949 9976 2960 C 10010 3039 10019 3186 9996 3284 C 9982 3342 9982 3344 10007 3377 C 10040 3421 10070 3519 10070 3587 C 10070 3695 10034 3794 9952 3909 L 9907 3973 L 9956 3940 C 9983 3922 10039 3878 10080 3844 z M 4473 3814 C 4507 3799 4552 3779 4572 3769 L 4609 3750 L 4545 3655 C 4510 3603 4480 3555 4478 3550 C 4476 3545 4415 3565 4341 3595 C 4268 3625 4201 3650 4193 3650 C 4158 3650 4177 3710 4257 3847 L 4281 3889 L 4346 3864 C 4382 3851 4440 3828 4473 3814 z M 8586 3768 C 8630 3682 8636 3650 8607 3650 C 8599 3650 8532 3625 8459 3595 C 8385 3565 8324 3545 8322 3550 C 8320 3555 8289 3603 8254 3656 C 8218 3709 8191 3754 8192 3755 C 8196 3758 8428 3855 8475 3873 C 8523 3892 8520 3895 8586 3768 z M 6047 3701 C 6123 3652 6184 3609 6183 3605 C 6182 3601 6116 3563 6036 3522 L 5891 3447 L 5746 3530 C 5666 3575 5600 3615 5600 3619 C 5600 3627 5880 3788 5897 3789 C 5904 3790 5971 3750 6047 3701 z M 7054 3708 C 7134 3663 7200 3623 7200 3619 C 7200 3615 7134 3575 7054 3530 L 6909 3447 L 6766 3521 C 6687 3562 6621 3599 6620 3604 C 6617 3614 6877 3788 6896 3789 C 6903 3790 6973 3753 7054 3708 z M 3485 3693 C 3507 3528 3581 3366 3688 3248 L 3721 3211 L 3679 3189 C 3624 3162 3528 3070 3496 3016 C 3426 2896 3422 2739 3485 2606 C 3498 2578 3508 2554 3506 2552 C 3504 2550 3476 2552 3445 2557 L 3387 2565 L 3374 2617 C 3339 2755 3249 2868 3132 2923 C 3074 2950 3053 2955 2970 2957 L 2875 2960 L 2862 2997 C 2837 3069 2828 3166 2839 3236 C 2844 3273 2851 3304 2853 3306 C 2855 3309 2877 3301 2901 3290 C 3000 3246 3141 3272 3219 3351 C 3256 3389 3300 3473 3300 3508 C 3300 3526 3295 3530 3268 3530 C 3226 3530 3175 3561 3150 3602 C 3139 3620 3130 3638 3130 3642 C 3130 3655 3290 3710 3367 3724 C 3483 3745 3478 3747 3485 3693 z M 3842 3720 C 3943 3703 4086 3667 4097 3657 C 4099 3655 4086 3611 4069 3559 C 4052 3508 4030 3425 4021 3376 L 4004 3286 L 3917 3269 C 3870 3259 3815 3247 3796 3240 C 3776 3234 3756 3231 3751 3234 C 3732 3246 3647 3367 3620 3420 C 3585 3490 3553 3596 3542 3678 L 3533 3740 L 3631 3740 C 3684 3740 3779 3731 3842 3720 z M 5047 3523 C 5109 3487 5162 3455 5164 3451 C 5166 3448 5111 3414 5042 3378 L 4915 3311 L 4784 3383 C 4712 3423 4620 3470 4581 3489 C 4542 3508 4510 3528 4510 3533 C 4510 3546 4577 3657 4613 3703 L 4642 3741 L 4789 3664 C 4869 3622 4986 3558 5047 3523 z M 8250 3607 C 8272 3569 8290 3535 8290 3531 C 8290 3527 8258 3508 8219 3489 C 8180 3470 8088 3423 8016 3383 L 7885 3311 L 7758 3378 C 7689 3414 7634 3448 7636 3452 C 7642 3462 7860 3585 8020 3669 L 8155 3740 L 8183 3708 C 8198 3690 8229 3644 8250 3607 z M 9258 3678 C 9240 3543 9185 3407 9106 3303 C 9080 3268 9054 3238 9049 3234 C 9044 3231 9024 3234 9004 3240 C 8985 3247 8931 3259 8883 3269 L 8797 3286 L 8778 3380 C 8767 3432 8745 3515 8729 3563 C 8712 3612 8700 3654 8703 3656 C 8705 3659 8738 3670 8776 3681 C 8892 3714 9050 3738 9161 3739 L 9267 3740 L 9258 3678 z M 9425 3725 C 9509 3710 9670 3656 9670 3642 C 9670 3638 9661 3620 9650 3602 C 9625 3561 9574 3530 9533 3530 C 9505 3530 9500 3526 9500 3508 C 9500 3473 9544 3389 9581 3351 C 9659 3272 9800 3246 9899 3290 C 9923 3301 9945 3309 9947 3306 C 9949 3304 9956 3273 9961 3236 C 9972 3166 9963 3069 9938 2997 L 9925 2960 L 9830 2957 C 9747 2955 9726 2950 9668 2923 C 9551 2868 9461 2755 9426 2617 L 9413 2565 L 9355 2557 C 9324 2552 9296 2550 9294 2552 C 9292 2554 9302 2578 9315 2606 C 9378 2739 9374 2896 9304 3016 C 9272 3070 9176 3162 9121 3189 L 9079 3211 L 9112 3248 C 9219 3366 9293 3528 9315 3693 C 9318 3719 9325 3740 9329 3740 C 9334 3740 9377 3733 9425 3725 z M 6451 3623 C 6478 3607 6500 3593 6500 3590 C 6500 3582 6414 3530 6400 3530 C 6386 3530 6300 3582 6300 3590 C 6300 3594 6390 3649 6399 3650 C 6400 3650 6424 3638 6451 3623 z M 4315 3579 C 4381 3552 4441 3526 4448 3522 C 4458 3515 4455 3501 4435 3457 C 4422 3426 4401 3370 4389 3334 L 4367 3268 L 4316 3274 C 4288 3277 4221 3283 4168 3286 C 4077 3293 4070 3295 4070 3314 C 4071 3346 4108 3508 4131 3578 C 4155 3651 4138 3651 4315 3579 z M 8669 3578 C 8692 3508 8729 3346 8730 3314 C 8730 3295 8723 3293 8633 3286 C 8579 3283 8512 3277 8484 3274 L 8432 3268 L 8410 3336 C 8397 3374 8377 3429 8364 3459 C 8351 3488 8340 3514 8340 3515 C 8340 3521 8623 3637 8642 3639 C 8645 3640 8658 3612 8669 3578 z M 3102 3580 C 3124 3542 3173 3512 3227 3504 C 3251 3501 3270 3494 3270 3488 C 3270 3465 3228 3400 3192 3368 C 3144 3325 3056 3290 2993 3290 C 2939 3290 2870 3325 2870 3352 C 2870 3398 2951 3515 3023 3571 C 3050 3592 3075 3610 3078 3610 C 3082 3610 3093 3596 3102 3580 z M 5743 3505 C 5808 3468 5858 3434 5853 3429 C 5849 3425 5781 3387 5702 3345 L 5558 3269 L 5492 3309 C 5314 3418 5287 3436 5288 3444 C 5288 3449 5351 3488 5427 3530 L 5565 3608 L 5595 3590 C 5612 3580 5678 3542 5743 3505 z M 7398 3515 C 7466 3478 7518 3444 7513 3439 C 7505 3431 7291 3297 7258 3279 C 7244 3272 7207 3287 7098 3345 C 7019 3387 6951 3425 6947 3429 C 6942 3434 7005 3476 7087 3523 C 7218 3598 7237 3607 7255 3596 C 7266 3589 7331 3553 7398 3515 z M 9777 3571 C 9849 3515 9930 3398 9930 3352 C 9930 3325 9861 3290 9807 3290 C 9744 3290 9656 3325 9608 3368 C 9572 3400 9530 3465 9530 3488 C 9530 3494 9549 3501 9573 3504 C 9627 3512 9676 3542 9698 3580 C 9707 3596 9718 3610 9722 3610 C 9725 3610 9750 3592 9777 3571 z M 6327 3524 L 6400 3479 L 6475 3525 L 6549 3572 L 6695 3495 C 6775 3453 6840 3415 6840 3412 C 6840 3408 6782 3372 6711 3332 L 6581 3260 L 6491 3307 L 6400 3355 L 6309 3307 L 6219 3260 L 6089 3332 C 6018 3372 5961 3409 5963 3413 C 5965 3420 6237 3569 6249 3570 C 6251 3570 6286 3549 6327 3524 z M 4616 3439 C 4790 3349 4873 3299 4863 3290 C 4849 3276 4648 3188 4631 3188 C 4617 3188 4431 3249 4421 3256 C 4412 3264 4483 3500 4494 3500 C 4496 3500 4550 3472 4616 3439 z M 8330 3443 C 8352 3383 8380 3284 8380 3264 C 8380 3258 8353 3245 8319 3235 C 8285 3226 8239 3210 8215 3200 L 8172 3182 L 8059 3231 C 7997 3258 7942 3284 7937 3289 C 7931 3295 7950 3311 7986 3332 C 8069 3379 8294 3498 8302 3499 C 8306 3500 8318 3474 8330 3443 z M 5359 3337 C 5433 3292 5492 3250 5492 3245 C 5491 3239 5438 3207 5373 3173 L 5255 3111 L 5108 3198 L 4961 3285 L 5088 3351 C 5158 3387 5217 3418 5220 3418 C 5223 3419 5285 3382 5359 3337 z M 7707 3352 L 7839 3285 L 7692 3198 L 7545 3111 L 7425 3174 C 7359 3209 7305 3241 7305 3245 C 7305 3250 7366 3291 7440 3336 C 7514 3382 7575 3420 7575 3420 C 7575 3420 7634 3389 7707 3352 z M 6070 3318 C 6128 3285 6178 3255 6182 3251 C 6186 3248 6150 3223 6102 3197 C 6054 3172 5983 3132 5944 3111 L 5873 3071 L 5759 3142 C 5696 3180 5639 3218 5632 3225 C 5620 3235 5645 3252 5771 3318 C 5900 3386 5928 3397 5945 3388 C 5956 3382 6012 3350 6070 3318 z M 7027 3319 C 7155 3252 7180 3235 7168 3225 C 7161 3218 7104 3180 7041 3142 L 6927 3071 L 6856 3111 C 6817 3132 6746 3171 6698 3197 C 6650 3223 6613 3247 6616 3250 C 6621 3255 6861 3397 6869 3399 C 6871 3400 6942 3363 7027 3319 z M 6462 3259 L 6524 3228 L 6464 3194 C 6432 3175 6403 3160 6400 3160 C 6397 3160 6368 3175 6336 3194 L 6276 3228 L 6336 3258 C 6368 3275 6396 3289 6398 3290 C 6399 3290 6428 3276 6462 3259 z M 5067 3184 C 5145 3137 5210 3097 5210 3094 C 5210 3092 5157 3063 5091 3031 L 4973 2971 L 4914 3016 C 4882 3040 4815 3084 4766 3112 C 4717 3141 4681 3165 4686 3167 C 4691 3169 4745 3192 4805 3219 C 4866 3246 4917 3268 4919 3269 C 4921 3269 4988 3231 5067 3184 z M 8000 3216 C 8063 3189 8116 3166 8118 3165 C 8119 3164 8081 3140 8033 3112 C 7984 3084 7918 3040 7886 3016 L 7827 2971 L 7707 3031 C 7641 3064 7591 3095 7596 3099 C 7614 3116 7875 3270 7880 3268 C 7883 3266 7937 3243 8000 3216 z M 3999 3213 C 3999 3186 3996 3148 3992 3127 L 3985 3090 L 3920 3121 C 3852 3153 3790 3195 3790 3209 C 3790 3219 3918 3251 3988 3259 C 3996 3260 4000 3245 3999 3213 z M 4251 3249 C 4298 3243 4342 3235 4348 3231 C 4354 3227 4356 3199 4353 3158 C 4346 3078 4352 3081 4183 3073 L 4060 3067 L 4060 3164 L 4060 3260 L 4112 3260 C 4140 3260 4203 3255 4251 3249 z M 8740 3165 L 8740 3070 L 8651 3070 C 8578 3070 8462 3083 8455 3093 C 8454 3094 8450 3125 8447 3162 C 8441 3222 8443 3230 8460 3235 C 8492 3245 8601 3257 8673 3259 L 8740 3260 L 8740 3165 z M 8943 3233 C 8980 3225 9010 3214 9010 3209 C 9010 3188 8828 3084 8810 3095 C 8806 3098 8802 3136 8801 3180 L 8799 3261 L 8837 3255 C 8858 3252 8905 3242 8943 3233 z M 4500 3194 C 4545 3180 4580 3167 4578 3164 C 4571 3158 4428 3110 4416 3110 C 4409 3110 4406 3130 4408 3165 C 4410 3195 4413 3220 4415 3220 C 4417 3220 4456 3208 4500 3194 z M 8392 3165 C 8394 3133 8391 3110 8385 3110 C 8367 3110 8219 3162 8223 3167 C 8228 3172 8369 3219 8382 3220 C 8385 3220 8390 3195 8392 3165 z M 5690 3134 C 5759 3093 5818 3056 5822 3052 C 5826 3048 5775 3014 5708 2977 L 5588 2909 L 5449 2992 C 5373 3037 5313 3077 5316 3080 C 5321 3085 5550 3206 5560 3209 C 5563 3209 5621 3176 5690 3134 z M 6331 3173 L 6399 3135 L 6473 3174 L 6547 3214 L 6686 3137 C 6889 3026 6880 3043 6764 2977 C 6710 2947 6644 2912 6619 2899 L 6572 2877 L 6486 2924 L 6400 2970 L 6314 2924 L 6228 2877 L 6181 2899 C 6075 2951 5939 3033 5947 3041 C 5959 3053 6243 3210 6254 3210 C 6258 3210 6293 3193 6331 3173 z M 7369 3142 C 7480 3085 7491 3077 7474 3066 C 7463 3059 7400 3021 7334 2981 L 7212 2909 L 7091 2977 C 7025 3014 6974 3048 6979 3053 C 6993 3067 7235 3210 7240 3207 C 7243 3206 7301 3176 7369 3142 z M 3783 3166 C 3811 3144 3887 3106 3971 3072 C 3995 3063 3997 3056 4003 2978 C 4009 2893 4037 2759 4064 2681 C 4073 2657 4080 2636 4080 2635 C 4080 2620 3848 2575 3691 2559 C 3548 2545 3556 2542 3519 2639 C 3461 2793 3494 2969 3603 3088 C 3643 3131 3723 3190 3743 3190 C 3747 3190 3766 3179 3783 3166 z M 9111 3162 C 9281 3053 9353 2832 9281 2639 C 9244 2542 9252 2545 9109 2559 C 8986 2571 8815 2601 8752 2621 C 8729 2629 8720 2637 8724 2646 C 8759 2738 8800 2937 8800 3017 C 8800 3055 8803 3062 8828 3072 C 8908 3104 8998 3150 9020 3168 C 9052 3196 9058 3195 9111 3162 z M 4795 3060 C 4834 3037 4882 3004 4903 2988 L 4941 2958 L 4878 2928 C 4843 2912 4741 2867 4651 2829 C 4525 2775 4485 2762 4479 2772 C 4455 2810 4418 2945 4413 3013 C 4407 3089 4407 3090 4431 3091 C 4444 3091 4493 3104 4540 3119 L 4625 3147 L 4675 3125 C 4703 3113 4757 3084 4795 3060 z M 8373 3090 C 8391 3090 8392 3084 8387 3018 C 8383 2953 8343 2806 8322 2772 C 8315 2762 8276 2775 8149 2829 C 8059 2867 7957 2912 7922 2928 L 7859 2958 L 7897 2988 C 7949 3029 8065 3099 8124 3125 L 8173 3147 L 8264 3118 C 8313 3103 8363 3090 8373 3090 z M 4377 2980 C 4389 2930 4412 2859 4429 2823 C 4454 2772 4458 2755 4448 2748 C 4432 2738 4166 2650 4151 2650 C 4132 2650 4078 2861 4065 2990 L 4058 3056 L 4127 3052 C 4164 3051 4222 3053 4255 3058 C 4362 3075 4353 3081 4377 2980 z M 8653 3055 L 8742 3055 L 8735 2990 C 8721 2854 8668 2650 8647 2650 C 8632 2650 8369 2738 8352 2748 C 8342 2755 8347 2772 8371 2823 C 8388 2859 8411 2930 8423 2980 L 8445 3070 L 8505 3063 C 8538 3058 8605 3055 8653 3055 z M 5388 2989 C 5452 2949 5515 2910 5528 2902 C 5550 2888 5547 2885 5393 2797 C 5306 2748 5230 2706 5223 2703 C 5217 2701 5197 2720 5179 2746 C 5161 2772 5115 2826 5077 2867 C 5010 2938 5008 2940 5031 2949 C 5044 2954 5102 2981 5160 3009 C 5218 3036 5266 3059 5268 3060 C 5270 3060 5324 3028 5388 2989 z M 7628 3014 C 7681 2989 7740 2961 7758 2953 L 7792 2939 L 7722 2866 C 7684 2826 7639 2772 7621 2746 C 7603 2720 7583 2701 7577 2703 C 7570 2706 7494 2748 7407 2798 L 7248 2888 L 7342 2945 C 7393 2976 7455 3015 7480 3031 C 7505 3047 7526 3060 7528 3060 C 7529 3060 7574 3039 7628 3014 z M 6048 2932 C 6127 2891 6190 2857 6188 2855 C 6187 2853 6128 2820 6058 2782 L 5930 2711 L 5811 2778 C 5622 2885 5627 2866 5766 2943 C 5831 2980 5890 3009 5895 3007 C 5901 3006 5970 2972 6048 2932 z M 7033 2943 C 7173 2866 7178 2885 6989 2778 L 6870 2711 L 6742 2782 C 6672 2820 6614 2853 6612 2855 C 6608 2859 6890 3007 6904 3009 C 6909 3009 6967 2980 7033 2943 z M 3122 2908 C 3189 2877 3257 2817 3300 2751 C 3332 2701 3376 2583 3367 2574 C 3357 2564 3245 2602 3169 2641 C 3128 2663 3068 2703 3037 2730 C 2983 2779 2890 2905 2890 2930 C 2890 2939 2912 2941 2978 2938 C 3044 2935 3078 2928 3122 2908 z M 9910 2933 C 9910 2928 9896 2900 9878 2870 C 9831 2787 9729 2692 9635 2643 C 9556 2602 9443 2563 9433 2573 C 9430 2576 9436 2603 9445 2632 C 9491 2776 9596 2886 9723 2925 C 9768 2940 9910 2945 9910 2933 z M 6463 2895 C 6494 2879 6520 2862 6520 2859 C 6520 2855 6493 2843 6460 2831 L 6400 2809 L 6340 2831 C 6307 2843 6280 2855 6280 2859 C 6280 2866 6392 2929 6401 2927 C 6404 2926 6432 2912 6463 2895 z M 5056 2848 C 5095 2808 5141 2754 5158 2728 L 5190 2682 L 4990 2581 L 4790 2479 L 4753 2499 C 4683 2534 4592 2609 4550 2664 C 4527 2694 4511 2723 4514 2728 C 4517 2733 4554 2750 4597 2765 C 4640 2781 4740 2822 4820 2856 C 4900 2890 4970 2919 4976 2919 C 4982 2920 5018 2887 5056 2848 z M 7947 2869 C 8012 2841 8112 2800 8170 2778 C 8228 2756 8279 2735 8284 2730 C 8309 2706 8151 2551 8047 2499 L 8010 2479 L 7810 2581 L 7610 2682 L 7642 2728 C 7676 2778 7808 2920 7821 2920 C 7825 2920 7882 2897 7947 2869 z M 5731 2785 C 5793 2750 5856 2714 5869 2707 C 5892 2693 5890 2692 5799 2643 C 5671 2575 5523 2508 5417 2471 C 5368 2454 5327 2440 5325 2440 C 5323 2440 5314 2466 5305 2497 C 5296 2528 5277 2577 5263 2604 C 5249 2632 5241 2656 5246 2657 C 5251 2659 5332 2703 5425 2754 C 5519 2806 5600 2849 5606 2849 C 5611 2850 5668 2821 5731 2785 z M 7377 2753 C 7475 2700 7556 2656 7558 2654 C 7560 2653 7550 2630 7537 2603 C 7523 2576 7504 2528 7495 2497 C 7476 2431 7491 2432 7340 2487 C 7254 2519 6936 2670 6917 2689 C 6913 2693 6956 2722 7012 2753 C 7069 2784 7129 2818 7145 2829 C 7162 2840 7180 2849 7187 2849 C 7193 2850 7279 2806 7377 2753 z M 6304 2815 C 6387 2784 6413 2784 6495 2815 L 6561 2840 L 6691 2769 C 6762 2730 6820 2694 6820 2690 C 6820 2680 6623 2590 6503 2545 L 6400 2507 L 6298 2545 C 6165 2594 5979 2681 5982 2692 C 5984 2697 6210 2829 6236 2839 C 6237 2840 6268 2829 6304 2815 z M 4523 2665 C 4564 2606 4662 2518 4717 2492 C 4735 2483 4750 2473 4750 2470 C 4750 2458 4522 2372 4408 2340 L 4339 2321 L 4295 2378 C 4241 2446 4155 2609 4167 2619 C 4171 2623 4216 2639 4265 2653 C 4315 2668 4380 2688 4410 2699 C 4440 2710 4470 2719 4475 2719 C 4481 2719 4502 2695 4523 2665 z M 8462 2675 C 8539 2650 8608 2630 8615 2630 C 8623 2630 8632 2626 8635 2620 C 8644 2606 8558 2444 8505 2378 L 8461 2321 L 8392 2340 C 8278 2372 8050 2458 8050 2470 C 8050 2473 8065 2483 8083 2492 C 8138 2518 8236 2606 8277 2665 C 8298 2695 8317 2719 8319 2720 C 8321 2720 8385 2700 8462 2675 z M 5248 2568 C 5264 2528 5281 2481 5285 2463 C 5291 2432 5290 2431 5253 2423 C 5188 2409 5020 2415 4933 2435 C 4887 2445 4850 2456 4850 2459 C 4850 2464 5197 2637 5212 2639 C 5215 2640 5232 2607 5248 2568 z M 7774 2550 C 7870 2503 7950 2462 7950 2459 C 7950 2456 7913 2445 7868 2435 C 7780 2415 7612 2409 7547 2423 C 7510 2431 7509 2432 7515 2463 C 7525 2511 7581 2641 7590 2638 C 7594 2636 7677 2597 7774 2550 z M 4137 2517 C 4161 2472 4200 2408 4225 2375 C 4254 2337 4266 2312 4260 2306 C 4255 2301 4188 2294 4113 2292 C 3953 2287 3888 2299 3773 2355 C 3706 2388 3580 2495 3580 2519 C 3580 2524 3615 2531 3658 2535 C 3739 2542 4042 2589 4049 2596 C 4051 2598 4063 2600 4074 2600 C 4090 2600 4105 2581 4137 2517 z M 8915 2566 C 8998 2552 9100 2538 9143 2535 C 9185 2531 9220 2525 9220 2520 C 9220 2496 9093 2388 9027 2355 C 8912 2299 8847 2287 8687 2292 C 8530 2297 8512 2305 8552 2347 C 8586 2384 8649 2483 8680 2549 C 8703 2599 8706 2602 8735 2597 C 8751 2594 8833 2580 8915 2566 z M 4984 2400 C 5029 2392 5106 2389 5175 2392 C 5264 2396 5290 2394 5294 2384 C 5302 2364 5283 2265 5265 2226 C 5240 2174 5172 2116 5104 2089 C 5052 2068 5028 2066 4905 2065 C 4749 2065 4687 2079 4559 2146 C 4499 2178 4354 2288 4362 2296 C 4364 2298 4420 2315 4485 2334 C 4551 2353 4650 2386 4705 2407 L 4805 2446 L 4856 2429 C 4885 2420 4942 2406 4984 2400 z M 8340 2325 C 8391 2312 8435 2299 8437 2296 C 8445 2288 8289 2170 8230 2140 C 8108 2078 8048 2065 7895 2065 C 7721 2066 7663 2084 7584 2164 C 7531 2219 7511 2267 7507 2350 L 7505 2395 L 7635 2392 C 7765 2389 7867 2402 7954 2432 C 7991 2446 7997 2444 8120 2398 C 8190 2372 8289 2339 8340 2325 z" stroke-linecap="round" />
</g>
</svg>